Dredd 2012 KORSUB HDRip PARTLY CROPPED XVID HS

 
http://www.imdb.com/title/tt1343727/


Source --  720p



File size                                : 1.36 GiB
Duration                                 : 1h 35mn
Overall bit rate                         : 2 034 Kbps


Video
ID                                       : 0

Codec ID                                 : XVID
Codec ID/Hint                            : XviD
Duration                                 : 1h 35mn
Bit rate                                 : 1 830 Kbps
Width                                    : 720 pixels
Height                                   : 304 pixels
Display aspect ratio                     : 2.35:1
Frame rate                               : 29.970 fps
Color space                              : YUV
Chroma subsampling                       : 4:2:0
Bit depth                                : 8 bits
Scan type                                : Progressive
Compression mode                         : Lossy
Bits/(Pixel*Frame)                       : 0.279
Stream size                              : 1.22 GiB (90%)
Writing library                          : XviD 64

Audio
ID                                       : 1
Format                                   : MPEG Audio
Format version                           : Version 1
Format profile                           : Layer 3
Codec ID                                 : 55
Codec ID/Hint                            : MP3
Duration                                 : 1h 35mn
Bit rate mode                            : Constant
Bit rate                                 : 192 Kbps
Channel(s)                               : 2 channels
Sampling rate                            : 48.0 KHz
Compression mode                         : Lossy
Stream size                              : 131 MiB (9%)

 
http://lookpic.com/remote-upload.php?img=http://i.imgur.com/845bM.png 
http://lookpic.com/remote-upload.php?img=http://i.imgur.com/WVIqE.png